<?xml version="1.0" standalone="no"?>
<!DOCTYPE svg PUBLIC "-//W3C//DTD SVG 20010904//EN"
 "http://www.w3.org/TR/2001/REC-SVG-20010904/DTD/svg10.dtd">
<svg version="1.0" xmlns="http://www.w3.org/2000/svg"
 width="1000.000000pt" height="1000.000000pt" viewBox="0 0 1000.000000 1000.000000"
 preserveAspectRatio="xMidYMid meet">
<metadata>
Created by potrace 1.14, written by Peter Selinger 2001-2017
</metadata>
<g transform="translate(0.000000,1000.000000) scale(0.100000,-0.100000)"
fill="#000000" stroke="none">
<path d="M4902 8699 c-86 -11 -153 -31 -286 -88 -156 -66 -241 -125 -381 -266
-140 -139 -209 -229 -356 -462 -415 -655 -510 -807 -647 -1038 -85 -143 -175
-294 -201 -335 -25 -41 -98 -161 -161 -267 -63 -105 -117 -189 -120 -186 -6 6
-16 39 -219 773 -89 322 -181 650 -203 730 -48 173 -202 617 -222 639 -7 9
-30 51 -50 95 -24 53 -40 77 -49 73 -9 -3 -20 8 -30 29 -9 19 -21 34 -27 34
-14 0 -13 -28 5 -85 26 -87 9 -58 -45 80 -51 129 -72 166 -87 151 -4 -3 37
-148 91 -322 54 -174 96 -318 94 -320 -2 -2 -17 36 -32 84 -42 134 -157 435
-172 453 -8 8 -14 18 -14 22 0 3 -16 41 -35 83 -25 54 -39 74 -46 67 -7 -7 -6
-26 5 -64 19 -64 19 -64 2 -50 -30 25 -24 -14 34 -200 33 -107 59 -197 58
-201 -2 -4 -32 77 -67 180 -35 103 -70 193 -77 201 -27 29 -27 -1 0 -92 38
-125 41 -142 14 -78 -22 53 -48 78 -48 47 0 -13 34 -134 115 -405 32 -107 27
-126 -9 -35 -28 71 -75 153 -88 154 -8 0 14 -79 48 -169 13 -35 23 -66 21 -68
-2 -2 -18 29 -36 68 -17 40 -34 70 -37 67 -3 -3 35 -129 85 -279 108 -331 162
-514 326 -1114 126 -460 216 -780 367 -1295 290 -999 320 -1112 569 -2149 164
-688 271 -1052 347 -1188 30 -54 42 -62 42 -26 1 24 4 21 20 -21 11 -28 26
-57 35 -65 13 -14 15 -9 15 44 l1 60 25 -65 c14 -36 31 -72 39 -80 13 -12 15
-8 15 33 0 55 11 54 40 -4 11 -21 25 -39 30 -39 5 0 6 30 3 70 -3 39 -3 70 0
70 4 0 16 -18 27 -40 27 -52 44 -52 37 0 -4 30 -2 40 9 40 8 0 14 8 14 18 1 9
10 -2 22 -25 11 -24 24 -43 29 -43 5 0 9 21 9 48 1 37 3 43 11 30 19 -34 32
-20 25 26 -4 25 -3 47 3 50 5 3 7 24 4 46 -5 35 -3 40 11 34 19 -7 17 22 -9
211 -8 55 -21 179 -29 275 -9 96 -27 308 -41 470 l-27 295 26 205 c14 113 30
248 36 300 5 52 19 174 30 270 26 228 54 530 80 860 74 940 158 1497 290 1937
70 233 181 487 301 689 57 94 81 120 91 95 2 -4 39 -39 83 -76 73 -62 84 -76
126 -164 25 -53 82 -157 126 -231 387 -654 586 -1306 733 -2400 16 -124 32
-241 34 -260 9 -60 133 -1152 161 -1410 78 -719 178 -1131 367 -1503 154 -302
340 -527 600 -723 190 -144 290 -207 458 -290 219 -108 415 -175 650 -223 86
-17 270 -37 228 -25 -10 3 -18 9 -18 14 0 4 -21 11 -47 14 -110 16 -444 119
-430 132 2 2 42 -7 88 -21 110 -34 415 -94 504 -100 82 -6 67 0 -112 41 -68
15 -121 29 -120 31 4 3 128 -14 302 -42 100 -16 168 -19 95 -3 -25 5 -54 13
-65 18 -11 5 -27 11 -35 14 -8 3 14 3 50 1 l65 -5 -64 15 c-100 23 -143 36
-139 41 3 2 47 -5 99 -15 52 -11 121 -22 154 -25 58 -5 57 -5 -25 14 -47 10
-105 26 -130 34 l-45 15 60 -4 60 -5 -45 14 c-33 9 -40 14 -25 17 13 3 -8 13
-55 26 -41 12 -68 22 -59 22 8 1 38 -5 65 -13 75 -22 211 -46 258 -45 49 1 39
5 -94 40 -48 13 -76 25 -65 27 11 3 -48 27 -136 57 -86 29 -165 58 -175 64
-22 14 -24 15 111 -29 134 -42 303 -83 321 -76 8 3 37 1 65 -5 80 -17 66 -5
-24 21 -73 21 -195 68 -139 54 12 -3 22 -3 22 -1 0 3 -56 24 -125 47 -69 24
-124 45 -121 47 2 2 56 -12 120 -31 117 -36 308 -86 323 -86 19 1 -32 21 -187
75 -91 32 -172 62 -180 67 -18 11 -16 11 189 -42 84 -22 156 -40 160 -39 3 0
-37 16 -89 35 -198 72 -230 86 -224 96 4 6 -2 8 -17 3 -20 -5 -21 -4 -9 5 12
10 11 11 -8 7 -12 -3 -20 -1 -16 4 3 5 0 9 -7 9 -7 0 -10 2 -7 5 3 3 80 -20
172 -51 92 -31 170 -54 172 -51 3 2 -23 15 -56 27 -96 36 -64 33 54 -6 104
-33 141 -40 93 -16 -12 6 -85 36 -162 67 -186 74 -327 137 -322 142 2 2 84
-26 182 -62 266 -98 243 -80 -85 67 -396 177 -693 352 -998 591 -323 252 -561
580 -732 1007 -100 250 -156 462 -175 658 -19 195 -50 802 -60 1177 -17 608
-50 1385 -75 1745 -17 244 -43 482 -75 710 -47 325 -131 707 -206 942 -60 188
-181 376 -338 526 -74 71 -136 110 -251 159 -151 65 -180 73 -345 97 -11 2
-48 -1 -83 -5z m-3154 -559 c0 -8 -8 8 -18 35 -10 28 -18 57 -18 65 0 8 8 -7
18 -35 10 -27 18 -57 18 -65z m2239 -1582 c-3 -8 -6 -5 -6 6 -1 11 2 17 5 13
3 -3 4 -12 1 -19z m-17 -93 c-7 -36 -14 -64 -17 -62 -2 3 2 34 8 71 7 36 14
64 17 61 2 -2 -1 -34 -8 -70z m-23 -97 c-3 -8 -6 -5 -6 6 -1 11 2 17 5 13 3
-3 4 -12 1 -19z m-10 -50 c-3 -8 -6 -5 -6 6 -1 11 2 17 5 13 3 -3 4 -12 1 -19z
m-150 -1665 c-3 -10 -5 -4 -5 12 0 17 2 24 5 18 2 -7 2 -21 0 -30z m-10 -100
c-12 -104 -51 -352 -55 -348 -5 5 51 405 57 405 2 0 1 -26 -2 -57z"/>
<path d="M8830 3210 c-108 -8 -363 -71 -392 -97 -13 -12 -17 -25 -13 -44 6
-26 4 -28 -32 -34 -21 -3 -46 -10 -55 -16 -10 -5 -25 -9 -33 -9 -9 0 -47 -24
-84 -54 -37 -30 -86 -62 -107 -71 -49 -20 -83 -51 -99 -90 -19 -43 -11 -168
14 -239 12 -33 21 -71 21 -85 0 -54 27 -105 71 -140 24 -18 50 -42 57 -52 20
-28 165 -69 247 -69 59 0 76 4 131 35 68 38 95 43 114 20 19 -23 33 -18 26 10
-5 20 1 36 30 70 l36 44 39 -31 c21 -17 42 -28 46 -24 5 4 -4 30 -20 57 -15
27 -27 59 -27 70 0 19 4 20 35 15 51 -10 59 0 35 41 -18 30 -19 40 -10 72 18
59 32 81 51 81 30 0 38 29 23 79 -7 24 -10 49 -7 54 3 5 22 7 42 5 20 -3 63 1
96 9 107 25 128 54 79 112 l-26 31 26 11 c29 13 34 36 11 45 -20 8 -13 94 9
106 49 28 -16 68 -111 68 -40 1 -78 7 -93 15 -14 8 -27 14 -30 13 -3 -1 -48
-4 -100 -8z m-383 -956 c-3 -3 -12 -4 -19 -1 -8 3 -5 6 6 6 11 1 17 -2 13 -5z"/>
<path d="M8675 850 c11 -5 34 -8 50 -8 l30 0 -30 8 c-16 4 -39 8 -50 8 l-20 1
20 -9z"/>
</g>
</svg>
